<svg width="34" height="34" viewBox="0 0 34 34" fill="none" xmlns="http://www.w3.org/2000/svg">
<path d="M3.3999 5.0999C3.3999 4.16102 4.16102 3.3999 5.0999 3.3999H8.75979C9.59081 3.3999 10.3 4.0007 10.4367 4.82042L11.6935 12.3614C11.8162 13.0976 11.4444 13.8277 10.7769 14.1614L8.14504 15.4773C10.0428 20.193 13.8068 23.9571 18.5225 25.8548L19.8384 23.2229C20.1721 22.5554 20.9022 22.1836 21.6384 22.3063L29.1794 23.5631C29.9991 23.6998 30.5999 24.409 30.5999 25.24V28.8999C30.5999 29.8388 29.8388 30.5999 28.8999 30.5999H25.4999C13.2944 30.5999 3.3999 20.7054 3.3999 8.4999V5.0999Z" fill="#494949"/>
</svg>
