<svg width="40" height="40" viewBox="0 0 40 40" fill="none" xmlns="http://www.w3.org/2000/svg">
<path d="M39.9112 19.6419C39.9112 29.5619 32.4399 37.763 22.7341 39.0939C21.8266 39.2177 20.8981 39.2824 19.9556 39.2824C18.8677 39.2824 17.7994 39.1971 16.759 39.032C7.25734 37.5263 0 29.4174 0 19.6419C0 8.79426 8.93534 0 19.957 0C30.9786 0 39.914 8.79426 39.914 19.6419H39.9112Z" fill="#C12A2A"/>
<path d="M22.734 15.7717V20.0505H28.112L27.2604 25.8143H22.734V39.0937C21.8265 39.2176 20.898 39.2823 19.9555 39.2823C18.8676 39.2823 17.7993 39.197 16.759 39.0318V25.8143H11.7991V20.0505H16.759V14.8152C16.759 11.5673 19.434 8.93311 22.7354 8.93311V8.93586C22.7452 8.93586 22.7536 8.93311 22.7634 8.93311H28.1134V13.9179H24.6176C23.5786 13.9179 22.7354 14.7478 22.7354 15.7703L22.734 15.7717Z" fill="white"/>
</svg>
