<svg width="40" height="40" viewBox="0 0 40 40" fill="none" xmlns="http://www.w3.org/2000/svg">
<path d="M20.0017 0H19.9109C8.91441 0 0 8.77365 0 19.5965V19.686C0 30.5088 8.91441 39.2824 19.9109 39.2824H20.0017C30.9982 39.2824 39.9126 30.5088 39.9126 19.686V19.5965C39.9126 8.77365 30.9982 0 20.0017 0Z" fill="#C12A2A"/>
<path d="M9.60585 13.0563C9.08008 12.576 8.8186 11.9815 8.8186 11.2741C8.8186 10.5667 9.08147 9.94601 9.60585 9.46432C10.1316 8.98401 10.8084 8.74316 11.6376 8.74316C12.4668 8.74316 13.1171 8.98401 13.6414 9.46432C14.1672 9.94463 14.4287 10.5488 14.4287 11.2741C14.4287 11.9994 14.1658 12.576 13.6414 13.0563C13.1157 13.5367 12.4487 13.7775 11.6376 13.7775C10.8266 13.7775 10.1316 13.5367 9.60585 13.0563ZM13.9868 15.8116V30.5375H9.25906V15.8116H13.9868Z" fill="#FEFFFC"/>
<path d="M29.7251 17.2665C30.7557 18.3675 31.2703 19.8786 31.2703 21.8026V30.2776H26.7802V22.3999C26.7802 21.4297 26.5243 20.6755 26.014 20.1387C25.5036 19.602 24.8156 19.3323 23.9542 19.3323C23.0928 19.3323 22.4048 19.6006 21.8944 20.1387C21.384 20.6755 21.1282 21.4297 21.1282 22.3999V30.2776H16.6116V15.7705H21.1282V17.6945C21.5854 17.0532 22.2021 16.5467 22.9768 16.1738C23.7515 15.8008 24.6226 15.615 25.5917 15.615C27.3172 15.615 28.6959 16.1655 29.7251 17.2651V17.2665Z" fill="#FEFFFC"/>
</svg>
