<svg width="41" height="40" viewBox="0 0 41 40" fill="none" xmlns="http://www.w3.org/2000/svg">
<path d="M20.7266 0H20.6357C9.63925 0 0.724854 8.77363 0.724854 19.5965V19.6859C0.724854 30.5088 9.63925 39.2824 20.6357 39.2824H20.7266C31.723 39.2824 40.6374 30.5088 40.6374 19.6859V19.5965C40.6374 8.77363 31.723 0 20.7266 0Z" fill="#C12A2A"/>
<path d="M26.857 7.9917H14.507C11.095 7.9917 8.31934 10.7236 8.31934 14.0816V25.2018C8.31934 28.5598 11.095 31.2917 14.507 31.2917H26.857C30.269 31.2917 33.0446 28.5598 33.0446 25.2018V14.0816C33.0446 10.7236 30.269 7.9917 26.857 7.9917ZM10.5021 14.0816C10.5021 11.9085 12.299 10.14 14.507 10.14H26.857C29.065 10.14 30.8618 11.9085 30.8618 14.0816V25.2018C30.8618 27.3749 29.065 29.1433 26.857 29.1433H14.507C12.299 29.1433 10.5021 27.3749 10.5021 25.2018V14.0816Z" fill="white"/>
<path d="M20.6819 25.3052C23.8547 25.3052 26.4375 22.7646 26.4375 19.6405C26.4375 16.5164 23.8561 13.9758 20.6819 13.9758C17.5077 13.9758 14.9264 16.5164 14.9264 19.6405C14.9264 22.7646 17.5077 25.3052 20.6819 25.3052ZM20.6819 16.1255C22.6522 16.1255 24.2547 17.7027 24.2547 19.6419C24.2547 21.581 22.6522 23.1582 20.6819 23.1582C18.7117 23.1582 17.1092 21.581 17.1092 19.6419C17.1092 17.7027 18.7117 16.1255 20.6819 16.1255Z" fill="white"/>
<path d="M26.9702 14.8909C27.8246 14.8909 28.5209 14.2069 28.5209 13.3647C28.5209 12.5224 27.826 11.8384 26.9702 11.8384C26.1144 11.8384 25.4194 12.5224 25.4194 13.3647C25.4194 14.2069 26.1144 14.8909 26.9702 14.8909Z" fill="white"/>
</svg>
