<svg width="41" height="40" viewBox="0 0 41 40" fill="none" xmlns="http://www.w3.org/2000/svg">
<path d="M20.3643 0H20.2734C9.27694 0 0.362549 8.77363 0.362549 19.5965V19.6859C0.362549 30.5088 9.27694 39.2824 20.2734 39.2824H20.3643C31.3607 39.2824 40.2751 30.5088 40.2751 19.6859V19.5965C40.2751 8.77363 31.3607 0 20.3643 0Z" fill="#C12A2A"/>
<path d="M31.9731 12.5309C31.4263 13.0745 30.6684 13.4117 29.828 13.4117C29.7204 13.4117 29.6155 13.4062 29.5106 13.3952C30.3874 12.8777 31.0641 12.0671 31.4011 11.101C31.4011 11.101 31.4025 11.101 31.4025 11.0996C31.4501 10.9702 31.4892 10.8395 31.52 10.7046C30.8264 11.434 29.8784 11.9281 28.8142 12.0464C28.6506 12.0657 28.4842 12.0754 28.3178 12.0754C28.2647 12.0754 28.2129 12.074 28.1626 12.0712C27.8032 11.6996 27.374 11.3913 26.8985 11.1656C26.3686 10.911 25.7757 10.761 25.1506 10.7418C25.0989 10.739 25.0485 10.7376 24.9954 10.7376C24.4654 10.7376 23.9564 10.8298 23.4866 11.0005C23.3663 11.0432 23.2489 11.0913 23.1342 11.1464C21.645 11.8331 20.6144 13.3236 20.6144 15.0494C20.6144 15.4031 20.6578 15.7486 20.7403 16.0775C20.2844 16.0596 19.8327 16.0169 19.3895 15.9509C19.2468 15.9289 19.1056 15.9041 18.9644 15.8779C17.8345 15.6715 16.7564 15.3164 15.7552 14.832C14.8589 14.4012 14.0241 13.8686 13.2634 13.2493C12.6244 12.7304 12.0399 12.1524 11.5169 11.5193C11.4945 11.4932 11.4721 11.4643 11.4497 11.4381C11.419 11.4836 11.391 11.5303 11.3658 11.5785C11.0009 12.2075 10.7939 12.9341 10.7939 13.7103C10.7939 13.7337 10.7939 13.7599 10.7953 13.7833C10.8037 14.3641 10.9296 14.9173 11.1533 15.421C11.2484 15.644 11.3645 15.8545 11.4973 16.0555C11.8888 16.6486 12.423 17.1427 13.055 17.484C13.0844 17.5019 13.1124 17.517 13.1431 17.5308C13.0984 17.5391 13.0508 17.5473 13.0047 17.5515C12.8746 17.568 12.7418 17.5762 12.6076 17.5762C11.935 17.5762 11.3099 17.3698 10.7981 17.0175C10.7953 17.0546 10.7953 17.0918 10.7953 17.1303C10.7953 18.3621 11.3197 19.4727 12.1601 20.2558C12.8145 20.8696 13.6605 21.2839 14.6002 21.4036C14.2618 21.5261 13.8968 21.5908 13.5151 21.5908C13.1026 21.5908 12.7082 21.5137 12.3475 21.3719C12.8858 23.0936 14.4897 24.3557 16.4026 24.4135C15.235 25.6081 13.5934 26.3499 11.7784 26.3499C10.6499 26.3499 9.58856 26.0622 8.66846 25.5599C10.8792 27.4426 13.7612 28.5794 16.9144 28.5794C23.8823 28.5794 29.5302 23.0207 29.5302 16.1628C29.5302 15.7857 29.5134 15.4114 29.4784 15.0425C30.6307 14.5953 31.5452 13.6787 31.9773 12.5309H31.9731Z" fill="white"/>
</svg>
