<svg width="24" height="30" viewBox="0 0 24 30" fill="none" xmlns="http://www.w3.org/2000/svg">
<g filter="url(#filter0_d_2051_268)">
<path fill-rule="evenodd" clip-rule="evenodd" d="M12 2C15.87 2 19 5.13 19 9C19 14.25 12 22 12 22C12 22 5 14.25 5 9C5 5.13 8.13 2 12 2ZM7 9C7 11.85 9.92 16.21 12 18.88C14.12 16.19 17 11.88 17 9C17 6.24 14.76 4 12 4C9.24 4 7 6.24 7 9ZM12 11.5C10.6193 11.5 9.5 10.3807 9.5 9C9.5 7.61929 10.6193 6.5 12 6.5C13.3807 6.5 14.5 7.61929 14.5 9C14.5 10.3807 13.3807 11.5 12 11.5Z" fill="#000468"/>
</g>
<defs>
<filter id="filter0_d_2051_268" x="-4" y="0" width="32" height="32" filterUnits="userSpaceOnUse" color-interpolation-filters="sRGB">
<feFlood flood-opacity="0" result="BackgroundImageFix"/>
<feColorMatrix in="SourceAlpha" type="matrix" values="0 0 0 0 0 0 0 0 0 0 0 0 0 0 0 0 0 0 127 0" result="hardAlpha"/>
<feOffset dy="4"/>
<feGaussianBlur stdDeviation="2"/>
<feComposite in2="hardAlpha" operator="out"/>
<feColorMatrix type="matrix" values="0 0 0 0 0 0 0 0 0 0 0 0 0 0 0 0 0 0 0.25 0"/>
<feBlend mode="normal" in2="BackgroundImageFix" result="effect1_dropShadow_2051_268"/>
<feBlend mode="normal" in="SourceGraphic" in2="effect1_dropShadow_2051_268" result="shape"/>
</filter>
</defs>
</svg>
